<svg xmlns="http://www.w3.org/2000/svg" width="11" height="11" viewBox="0 0 11 11" fill="none">
  <mask id="mask0_3_186" style="mask-type:alpha" maskUnits="userSpaceOnUse" x="0" y="0" width="11" height="11">
    <rect x="0.199951" y="0.5" width="10" height="10" fill="#BEC2C8"/>
  </mask>
  <g mask="url(#mask0_3_186)">
    <path d="M5.19987 9.66667C4.62348 9.66667 4.08181 9.55729 3.57487 9.33854C3.06793 9.11979 2.62695 8.82292 2.25195 8.44792C1.87695 8.07292 1.58008 7.63194 1.36133 7.125C1.14258 6.61806 1.0332 6.07639 1.0332 5.5C1.0332 4.92361 1.14258 4.38194 1.36133 3.875C1.58008 3.36806 1.87695 2.92708 2.25195 2.55208C2.62695 2.17708 3.06793 1.88021 3.57487 1.66146C4.08181 1.44271 4.62348 1.33333 5.19987 1.33333C5.77626 1.33333 6.31793 1.44271 6.82487 1.66146C7.33181 1.88021 7.77279 2.17708 8.14779 2.55208C8.52279 2.92708 8.81966 3.36806 9.03841 3.875C9.25716 4.38194 9.36654 4.92361 9.36654 5.5C9.36654 6.07639 9.25716 6.61806 9.03841 7.125C8.81966 7.63194 8.52279 8.07292 8.14779 8.44792C7.77279 8.82292 7.33181 9.11979 6.82487 9.33854C6.31793 9.55729 5.77626 9.66667 5.19987 9.66667ZM5.19987 8.83333C6.13043 8.83333 6.91862 8.51042 7.56445 7.86458C8.21029 7.21875 8.5332 6.43056 8.5332 5.5C8.5332 4.56944 8.21029 3.78125 7.56445 3.13542C6.91862 2.48958 6.13043 2.16667 5.19987 2.16667C4.26931 2.16667 3.48112 2.48958 2.83529 3.13542C2.18945 3.78125 1.86654 4.56944 1.86654 5.5C1.86654 6.43056 2.18945 7.21875 2.83529 7.86458C3.48112 8.51042 4.26931 8.83333 5.19987 8.83333ZM5.19987 8.83333C4.26931 8.83333 3.48112 8.51042 2.83529 7.86458C2.18945 7.21875 1.86654 6.43056 1.86654 5.5C1.86654 4.56944 2.18945 3.78125 2.83529 3.13542C3.48112 2.48958 4.26931 2.16667 5.19987 2.16667C6.13043 2.16667 6.91862 2.48958 7.56445 3.13542C8.21029 3.78125 8.5332 4.56944 8.5332 5.5C8.5332 6.43056 8.21029 7.21875 7.56445 7.86458C6.91862 8.51042 6.13043 8.83333 5.19987 8.83333Z" fill="#BEC2C8"/>
  </g>
</svg>