<svg xmlns="http://www.w3.org/2000/svg" width="21" height="20" viewBox="0 0 21 20" fill="none">
  <mask id="mask0_3_181" style="mask-type:alpha" maskUnits="userSpaceOnUse" x="0" y="0" width="21" height="20">
    <rect x="0.199951" width="20" height="20" fill="#D9D9D9"/>
  </mask>
  <g mask="url(#mask0_3_181)">
    <path d="M9.03337 13.8333L14.9084 7.95833L13.7417 6.79167L9.03337 11.5L6.65837 9.125L5.4917 10.2917L9.03337 13.8333ZM10.2 18.3333C9.04725 18.3333 7.96392 18.1146 6.95003 17.6771C5.93614 17.2396 5.0542 16.6458 4.3042 15.8958C3.5542 15.1458 2.96045 14.2639 2.52295 13.25C2.08545 12.2361 1.8667 11.1528 1.8667 10C1.8667 8.84722 2.08545 7.76389 2.52295 6.75C2.96045 5.73611 3.5542 4.85417 4.3042 4.10417C5.0542 3.35417 5.93614 2.76042 6.95003 2.32292C7.96392 1.88542 9.04725 1.66667 10.2 1.66667C11.3528 1.66667 12.4361 1.88542 13.45 2.32292C14.4639 2.76042 15.3459 3.35417 16.0959 4.10417C16.8459 4.85417 17.4396 5.73611 17.8771 6.75C18.3146 7.76389 18.5334 8.84722 18.5334 10C18.5334 11.1528 18.3146 12.2361 17.8771 13.25C17.4396 14.2639 16.8459 15.1458 16.0959 15.8958C15.3459 16.6458 14.4639 17.2396 13.45 17.6771C12.4361 18.1146 11.3528 18.3333 10.2 18.3333Z" fill="#1C1B1F"/>
  </g>
</svg>