<svg xmlns="http://www.w3.org/2000/svg" width="20" height="20" viewBox="0 0 20 20" fill="none">
  <mask id="mask0_3_136" style="mask-type:alpha" maskUnits="userSpaceOnUse" x="0" y="0" width="20" height="20">
    <rect width="20" height="20" fill="#D9D9D9"/>
  </mask>
  <g mask="url(#mask0_3_136)">
    <path d="M4.99992 11.6667C4.54159 11.6667 4.14922 11.5035 3.82284 11.1771C3.49645 10.8507 3.33325 10.4583 3.33325 10C3.33325 9.54167 3.49645 9.14931 3.82284 8.82292C4.14922 8.49653 4.54159 8.33334 4.99992 8.33334C5.45825 8.33334 5.85061 8.49653 6.177 8.82292C6.50339 9.14931 6.66659 9.54167 6.66659 10C6.66659 10.4583 6.50339 10.8507 6.177 11.1771C5.85061 11.5035 5.45825 11.6667 4.99992 11.6667ZM9.99992 11.6667C9.54158 11.6667 9.14922 11.5035 8.82284 11.1771C8.49645 10.8507 8.33325 10.4583 8.33325 10C8.33325 9.54167 8.49645 9.14931 8.82284 8.82292C9.14922 8.49653 9.54158 8.33334 9.99992 8.33334C10.4583 8.33334 10.8506 8.49653 11.177 8.82292C11.5034 9.14931 11.6666 9.54167 11.6666 10C11.6666 10.4583 11.5034 10.8507 11.177 11.1771C10.8506 11.5035 10.4583 11.6667 9.99992 11.6667ZM14.9999 11.6667C14.5416 11.6667 14.1492 11.5035 13.8228 11.1771C13.4964 10.8507 13.3333 10.4583 13.3333 10C13.3333 9.54167 13.4964 9.14931 13.8228 8.82292C14.1492 8.49653 14.5416 8.33334 14.9999 8.33334C15.4583 8.33334 15.8506 8.49653 16.177 8.82292C16.5034 9.14931 16.6666 9.54167 16.6666 10C16.6666 10.4583 16.5034 10.8507 16.177 11.1771C15.8506 11.5035 15.4583 11.6667 14.9999 11.6667Z" fill="#6B6F76"/>
  </g>
</svg>