<svg xmlns="http://www.w3.org/2000/svg" enable-background="new 0 0 60 60" viewBox="0 0 60 60" width="256" height="256"><path d="M27.1300049 28.710022h-7.7000122c-.5499878 0-1 .4500122-1 1V49.289978c0 .5500488.4500122 1 1 1h7.7000122c.5499878 0 1-.4499512 1-1V29.710022C28.1300049 29.1600342 27.6799927 28.710022 27.1300049 28.710022zM40.5599976 18.539978h-7.7000122c-.5499878 0-1 .4500122-1 1v29.75c0 .5500488.4500122 1 1 1h7.7000122c.5499878 0 1-.4499512 1-1v-29.75C41.5599976 18.9899902 41.1099854 18.539978 40.5599976 18.539978zM54 9.710022h-7.7000122c-.5499878 0-1 .4500122-1 1V49.289978c0 .5500488.4500122 1 1 1H54c.5499878 0 1-.4499512 1-1V10.710022C55 10.1600342 54.5499878 9.710022 54 9.710022zM14.6900024 49.289978V39.710022c0-.5499878-.4400024-1-1-1H6c-.5599976 0-1 .4500122-1 1v9.5799561c0 .5500488.4400024 1 1 1h7.6900024C14.25 50.289978 14.6900024 49.8400269 14.6900024 49.289978z" fill="#000000" class="color000 svgShape"></path></svg>